# xmcd CD database file
#
# Track frame offsets:
#	150
#	15070
#	34664
#	49742
#	63803
#	80361
#	99267
#	113934
#	132679
#	158638
#	175430
#	192162
#	211353
#	227438
#	244867
#	263511
#	280599
#	296802
#	311075
#	329817
#
# Disc length: 4676 seconds
#
# Revision: 1
# Processed by: cddbd v1.5.2PL0 Copyright (c) Steve Scherf et al.
# Submitted via: CDex 2.22
#
DISCID=13124214
DTITLE=Various Artist - 100 Hits Disco Fever CD4
DYEAR=1900
DGENRE=Disco
TTITLE0=Evelyn 'Champagne' King - Back To Love
TTITLE1=The Three Degrees - The Runner
TTITLE2=Linda Lewis - It's In His Kiss
TTITLE3=Tina Charles - Dance Little Lady Dance
TTITLE4=Harvey Mason - Till You Take My Love
TTITLE5=The Jones Girls - You Gonna Make Me Love Somebody Else
TTITLE6=Andrea True Connection - What's Your Name, What's Your Number?
TTITLE7=Deniece Williams - Baby, Baby My Love's All For You
TTITLE8=Dr Buzzard's Original Savannah Band - Cherchez La Femme
TTITLE9=The Nolans - Don't Make Waves
TTITLE10=The Dooleys - Wanted
TTITLE11=Pointer Sisters - Neutron Dance
TTITLE12=Eruption - One Way Ticket
TTITLE13=Melba Moore - Pick Me Up I'll Dance
TTITLE14=Vicki Sue Robinson - Turn The Beat Around
TTITLE15=Keni Burke - Risin' To The Top
TTITLE16=Leo Sayer - How Much Love
TTITLE17=Rick Sheppard - Can We Share It
TTITLE18=Glitter Band - Makes You Blind
TTITLE19=John Davis and The Monster Orchestra - Ain't That Enough For You
EXTD=(p)2014 Demon Record Group
EXTT0=
EXTT1=
EXTT2=
EXTT3=
EXTT4=
EXTT5=
EXTT6=
EXTT7=
EXTT8=
EXTT9=
EXTT10=
EXTT11=
EXTT12=
EXTT13=
EXTT14=
EXTT15=
EXTT16=
EXTT17=
EXTT18=
EXTT19=
PLAYORDER=
